<?xml version="1.0" encoding="UTF-8"?>
<svg width="700pt" height="700pt" version="1.1" viewBox="0 0 700 700" xmlns="http://www.w3.org/2000/svg" xmlns:xlink="http://www.w3.org/1999/xlink">
 <defs>
  <symbol id="u" overflow="visible">
   <path d="m14.656-0.875c-0.76172 0.39844-1.5547 0.69531-2.375 0.89062-0.8125 0.19531-1.6641 0.29688-2.5469 0.29688-2.6562 0-4.7617-0.73828-6.3125-2.2188-1.5547-1.4883-2.3281-3.5039-2.3281-6.0469 0-2.5508 0.77344-4.5664 2.3281-6.0469 1.5508-1.4883 3.6562-2.2344 6.3125-2.2344 0.88281 0 1.7344 0.10156 2.5469 0.29688 0.82031 0.19922 1.6133 0.49609 2.375 0.89062v3.2969c-0.76172-0.51953-1.5117-0.89844-2.25-1.1406-0.74219-0.23828-1.5234-0.35938-2.3438-0.35938-1.4688 0-2.625 0.46875-3.4688 1.4062-0.83594 0.9375-1.25 2.2344-1.25 3.8906 0 1.6484 0.41406 2.9375 1.25 3.875 0.84375 0.9375 2 1.4062 3.4688 1.4062 0.82031 0 1.6016-0.11719 2.3438-0.35938 0.73828-0.23828 1.4883-0.61719 2.25-1.1406z"/>
  </symbol>
  <symbol id="d" overflow="visible">
   <path d="m10.719-8.7031c-0.33594-0.15625-0.66797-0.26953-1-0.34375-0.32422-0.082031-0.65625-0.125-1-0.125-0.98047 0-1.7344 0.32031-2.2656 0.95312-0.53125 0.625-0.79688 1.5273-0.79688 2.7031v5.5156h-3.8125v-11.969h3.8125v1.9688c0.48828-0.78125 1.0508-1.3477 1.6875-1.7031 0.64453-0.36328 1.4102-0.54688 2.2969-0.54688 0.13281 0 0.27344 0.007812 0.42188 0.015625 0.14453 0.011719 0.36328 0.03125 0.65625 0.0625z"/>
  </symbol>
  <symbol id="a" overflow="visible">
   <path d="m13.781-6.0156v1.0938h-8.9375c0.09375 0.89844 0.41406 1.5703 0.96875 2.0156 0.55078 0.44922 1.3281 0.67188 2.3281 0.67188 0.80078 0 1.625-0.11719 2.4688-0.35938 0.84375-0.23828 1.7109-0.59766 2.6094-1.0781v2.9531c-0.90625 0.33594-1.8125 0.58984-2.7188 0.76562s-1.8125 0.26562-2.7188 0.26562c-2.1562 0-3.8398-0.54688-5.0469-1.6406-1.1992-1.1016-1.7969-2.6484-1.7969-4.6406 0-1.9453 0.58594-3.4766 1.7656-4.5938 1.1758-1.125 2.8008-1.6875 4.875-1.6875 1.875 0 3.375 0.57031 4.5 1.7031 1.1328 1.125 1.7031 2.6367 1.7031 4.5312zm-3.9375-1.2656c0-0.72656-0.21484-1.3125-0.64062-1.75-0.41797-0.44531-0.96875-0.67188-1.6562-0.67188-0.74219 0-1.3438 0.21094-1.8125 0.625-0.46094 0.41797-0.74609 1.0156-0.85938 1.7969z"/>
  </symbol>
  <symbol id="g" overflow="visible">
   <path d="m7.2031-5.3906c-0.80469 0-1.4062 0.13672-1.8125 0.40625-0.39844 0.27344-0.59375 0.67188-0.59375 1.2031 0 0.48047 0.16016 0.85938 0.48438 1.1406 0.32031 0.27344 0.77344 0.40625 1.3594 0.40625 0.71875 0 1.3203-0.25391 1.8125-0.76562 0.48828-0.51953 0.73438-1.1719 0.73438-1.9531v-0.4375zm5.8438-1.4375v6.8281h-3.8594v-1.7656c-0.51172 0.71875-1.0898 1.2461-1.7344 1.5781-0.63672 0.33203-1.418 0.5-2.3438 0.5-1.2422 0-2.2461-0.35938-3.0156-1.0781-0.77344-0.72656-1.1562-1.6719-1.1562-2.8281 0-1.3945 0.47656-2.4219 1.4375-3.0781 0.96875-0.65625 2.4883-0.98438 4.5625-0.98438h2.25v-0.29688c0-0.60156-0.24219-1.0469-0.71875-1.3281-0.48047-0.28125-1.2266-0.42188-2.2344-0.42188-0.8125 0-1.5742 0.085937-2.2812 0.25-0.71094 0.15625-1.3672 0.40234-1.9688 0.73438v-2.9219c0.82031-0.19531 1.6445-0.34766 2.4688-0.45312 0.82031-0.10156 1.6484-0.15625 2.4844-0.15625 2.1562 0 3.7109 0.42969 4.6719 1.2812 0.95703 0.84375 1.4375 2.2266 1.4375 4.1406z"/>
  </symbol>
  <symbol id="b" overflow="visible">
   <path d="m6.0156-15.359v3.3906h3.9375v2.7344h-3.9375v5.0781c0 0.55469 0.10938 0.92969 0.32812 1.125 0.21875 0.19922 0.65625 0.29688 1.3125 0.29688h1.9688v2.7344h-3.2812c-1.5117 0-2.5859-0.3125-3.2188-0.9375-0.625-0.63281-0.9375-1.707-0.9375-3.2188v-5.0781h-1.9062v-2.7344h1.9062v-3.3906z"/>
  </symbol>
  <symbol id="i" overflow="visible">
   <path d="m9.9688-10.219v-6.4062h3.8594v16.625h-3.8594v-1.7344c-0.52344 0.71094-1.1016 1.2305-1.7344 1.5625-0.63672 0.32031-1.3711 0.48438-2.2031 0.48438-1.4688 0-2.6797-0.58203-3.625-1.75-0.94922-1.1758-1.4219-2.6875-1.4219-4.5312s0.47266-3.3477 1.4219-4.5156c0.94531-1.1758 2.1562-1.7656 3.625-1.7656 0.83203 0 1.5664 0.16797 2.2031 0.5 0.63281 0.32422 1.2109 0.83594 1.7344 1.5312zm-2.5156 7.75c0.82031 0 1.4453-0.29688 1.875-0.89062 0.42578-0.60156 0.64062-1.4727 0.64062-2.6094 0-1.1445-0.21484-2.0156-0.64062-2.6094-0.42969-0.59375-1.0547-0.89062-1.875-0.89062-0.8125 0-1.4336 0.29688-1.8594 0.89062-0.42969 0.59375-0.64062 1.4648-0.64062 2.6094 0 1.1367 0.21094 2.0078 0.64062 2.6094 0.42578 0.59375 1.0469 0.89062 1.8594 0.89062z"/>
  </symbol>
  <symbol id="c" overflow="visible">
   <path d="m8.2031-2.4688c0.82031 0 1.4453-0.29688 1.875-0.89062 0.42578-0.60156 0.64062-1.4727 0.64062-2.6094 0-1.1445-0.21484-2.0156-0.64062-2.6094-0.42969-0.59375-1.0547-0.89062-1.875-0.89062-0.82422 0-1.4531 0.30469-1.8906 0.90625-0.4375 0.59375-0.65625 1.4609-0.65625 2.5938 0 1.1367 0.21875 2.0078 0.65625 2.6094 0.4375 0.59375 1.0664 0.89062 1.8906 0.89062zm-2.5469-7.75c0.53125-0.69531 1.1133-1.207 1.75-1.5312 0.64453-0.33203 1.3828-0.5 2.2188-0.5 1.4688 0 2.6758 0.58984 3.625 1.7656 0.94531 1.168 1.4219 2.6719 1.4219 4.5156s-0.47656 3.3555-1.4219 4.5312c-0.94922 1.168-2.1562 1.75-3.625 1.75-0.83594 0-1.5742-0.16797-2.2188-0.5-0.63672-0.33203-1.2188-0.84766-1.75-1.5469v1.7344h-3.8125v-16.625h3.8125z"/>
  </symbol>
  <symbol id="f" overflow="visible">
   <path d="m0.26562-11.969h3.8281l3.2188 8.125 2.7344-8.125h3.8125l-5.0312 13.094c-0.5 1.332-1.0898 2.2656-1.7656 2.7969-0.66797 0.53125-1.5547 0.79688-2.6562 0.79688h-2.2188v-2.5h1.2031c0.64453 0 1.1133-0.10547 1.4062-0.3125 0.30078-0.21094 0.53125-0.57812 0.6875-1.1094l0.10938-0.34375z"/>
  </symbol>
  <symbol id="h" overflow="visible">
   <path d="m2.0156-15.953h4.1094v6.0781h6.0625v-6.0781h4.1094v15.953h-4.1094v-6.7656h-6.0625v6.7656h-4.1094z"/>
  </symbol>
  <symbol id="t" overflow="visible">
   <path d="m7.8438-8.875c0.86328 0 1.4844-0.16016 1.8594-0.48438 0.375-0.32031 0.5625-0.84766 0.5625-1.5781 0-0.72656-0.1875-1.25-0.5625-1.5625s-0.99609-0.46875-1.8594-0.46875h-1.7188v4.0938zm-1.7188 2.8438v6.0312h-4.1094v-15.953h6.2656c2.1016 0 3.6445 0.35547 4.625 1.0625 0.97656 0.71094 1.4688 1.8242 1.4688 3.3438 0 1.0547-0.25781 1.918-0.76562 2.5938-0.51172 0.67969-1.2773 1.1797-2.2969 1.5 0.5625 0.125 1.0625 0.41797 1.5 0.875 0.44531 0.44922 0.89844 1.1328 1.3594 2.0469l2.2344 4.5312h-4.375l-1.9531-3.9688c-0.38672-0.78906-0.78125-1.332-1.1875-1.625-0.40625-0.28906-0.94531-0.4375-1.6094-0.4375z"/>
  </symbol>
  <symbol id="s" overflow="visible">
   <path d="m1.8438-11.969h3.8125v11.969h-3.8125zm0-4.6562h3.8125v3.125h-3.8125z"/>
  </symbol>
  <symbol id="r" overflow="visible">
   <path d="m9.7031-16.625v2.5156h-2.1094c-0.54297 0-0.92188 0.10156-1.1406 0.29688-0.21094 0.19922-0.3125 0.53906-0.3125 1.0156v0.82812h3.2656v2.7344h-3.2656v9.2344h-3.8281v-9.2344h-1.8906v-2.7344h1.8906v-0.82812c0-1.3008 0.36328-2.2656 1.0938-2.8906 0.72656-0.625 1.8516-0.9375 3.375-0.9375z"/>
  </symbol>
  <symbol id="e" overflow="visible">
   <path d="m7.5312-9.5156c-0.84375 0-1.4922 0.30859-1.9375 0.92188-0.44922 0.60547-0.67188 1.4805-0.67188 2.625 0 1.1484 0.22266 2.0273 0.67188 2.6406 0.44531 0.60547 1.0938 0.90625 1.9375 0.90625 0.83203 0 1.4688-0.30078 1.9062-0.90625 0.44531-0.61328 0.67188-1.4922 0.67188-2.6406 0-1.1445-0.22656-2.0195-0.67188-2.625-0.4375-0.61328-1.0742-0.92188-1.9062-0.92188zm0-2.7344c2.0508 0 3.6562 0.55859 4.8125 1.6719 1.1641 1.1055 1.75 2.6406 1.75 4.6094s-0.58594 3.5117-1.75 4.625c-1.1562 1.1055-2.7617 1.6562-4.8125 1.6562-2.0625 0-3.6797-0.55078-4.8438-1.6562-1.168-1.1133-1.75-2.6562-1.75-4.625s0.58203-3.5039 1.75-4.6094c1.1641-1.1133 2.7812-1.6719 4.8438-1.6719z"/>
  </symbol>
  <symbol id="q" overflow="visible">
   <path d="m12.922-9.9688c0.48828-0.75 1.0625-1.3164 1.7188-1.7031 0.66406-0.38281 1.3984-0.57812 2.2031-0.57812 1.375 0 2.4219 0.42969 3.1406 1.2812 0.71875 0.84375 1.0781 2.0742 1.0781 3.6875v7.2812h-3.8438v-6.2344c0.007812-0.09375 0.015625-0.1875 0.015625-0.28125v-0.4375c0-0.84375-0.125-1.457-0.375-1.8438-0.25-0.38281-0.65234-0.57812-1.2031-0.57812-0.73047 0-1.293 0.30469-1.6875 0.90625-0.38672 0.59375-0.58984 1.4609-0.60938 2.5938v5.875h-3.8438v-6.2344c0-1.3203-0.11719-2.1758-0.34375-2.5625-0.23047-0.38281-0.63672-0.57812-1.2188-0.57812-0.73047 0-1.2969 0.30469-1.7031 0.90625-0.39844 0.60547-0.59375 1.4648-0.59375 2.5781v5.8906h-3.8438v-11.969h3.8438v1.75c0.46875-0.66406 1.0039-1.1719 1.6094-1.5156 0.61328-0.34375 1.2891-0.51562 2.0312-0.51562 0.82031 0 1.5508 0.19922 2.1875 0.59375 0.63281 0.39844 1.1133 0.96094 1.4375 1.6875z"/>
  </symbol>
  <symbol id="p" overflow="visible">
   <path d="m13.859-7.2812v7.2812h-3.8438v-5.5469c0-1.0508-0.027344-1.7695-0.078125-2.1562-0.042969-0.39453-0.12109-0.6875-0.23438-0.875-0.14844-0.25-0.35156-0.44141-0.60938-0.57812-0.25-0.14453-0.54297-0.21875-0.875-0.21875-0.79297 0-1.418 0.3125-1.875 0.9375-0.46094 0.61719-0.6875 1.4648-0.6875 2.5469v5.8906h-3.8125v-16.625h3.8125v6.4062c0.58203-0.69531 1.1953-1.207 1.8438-1.5312 0.64453-0.33203 1.3594-0.5 2.1406-0.5 1.3828 0 2.4297 0.42969 3.1406 1.2812 0.71875 0.84375 1.0781 2.0742 1.0781 3.6875z"/>
  </symbol>
  <symbol id="o" overflow="visible">
   <path d="m2.0156-15.953h4.5781l5.8125 10.938v-10.938h3.8906v15.953h-4.5938l-5.7969-10.938v10.938h-3.8906z"/>
  </symbol>
  <symbol id="n" overflow="visible">
   <path d="m1.7031-4.6562v-7.3125h3.8438v1.2031c0 0.64844-0.007813 1.4609-0.015625 2.4375v1.9688c0 0.96094 0.023438 1.6523 0.078125 2.0781 0.050781 0.41797 0.13281 0.72656 0.25 0.92188 0.15625 0.25 0.35938 0.44531 0.60938 0.57812 0.25781 0.13672 0.55078 0.20312 0.875 0.20312 0.80078 0 1.4258-0.30469 1.875-0.92188 0.45703-0.61328 0.6875-1.4688 0.6875-2.5625v-5.9062h3.8281v11.969h-3.8281v-1.7344c-0.57422 0.69922-1.1836 1.2148-1.8281 1.5469-0.64844 0.33203-1.3555 0.5-2.125 0.5-1.3867 0-2.4453-0.42188-3.1719-1.2656-0.71875-0.85156-1.0781-2.0859-1.0781-3.7031z"/>
  </symbol>
  <symbol id="m" overflow="visible">
   <path d="m13.859-7.2812v7.2812h-3.8438v-5.5781c0-1.0312-0.027344-1.7383-0.078125-2.125-0.042969-0.39453-0.12109-0.6875-0.23438-0.875-0.14844-0.25-0.35156-0.44141-0.60938-0.57812-0.25-0.14453-0.54297-0.21875-0.875-0.21875-0.79297 0-1.418 0.3125-1.875 0.9375-0.46094 0.61719-0.6875 1.4648-0.6875 2.5469v5.8906h-3.8125v-11.969h3.8125v1.75c0.58203-0.69531 1.1953-1.207 1.8438-1.5312 0.64453-0.33203 1.3594-0.5 2.1406-0.5 1.3828 0 2.4297 0.42969 3.1406 1.2812 0.71875 0.84375 1.0781 2.0742 1.0781 3.6875z"/>
  </symbol>
  <symbol id="l" overflow="visible">
   <path d="m2.0156-15.953h6.8125c2.0312 0 3.5859 0.45312 4.6719 1.3594 1.0938 0.89844 1.6406 2.1797 1.6406 3.8438 0 1.6797-0.54688 2.9688-1.6406 3.875-1.0859 0.89844-2.6406 1.3438-4.6719 1.3438h-2.7031v5.5312h-4.1094zm4.1094 2.9844v4.4531h2.2656c0.80078 0 1.4141-0.19141 1.8438-0.57812 0.4375-0.38281 0.65625-0.9375 0.65625-1.6562 0-0.70703-0.21875-1.2539-0.65625-1.6406-0.42969-0.38281-1.043-0.57812-1.8438-0.57812z"/>
  </symbol>
  <symbol id="k" overflow="visible">
   <path d="m1.8438-11.969h3.8125v11.75c0 1.6016-0.38672 2.8281-1.1562 3.6719-0.76172 0.84375-1.8711 1.2656-3.3281 1.2656h-1.8906v-2.5h0.65625c0.72656 0 1.2266-0.16797 1.5-0.5 0.26953-0.32422 0.40625-0.96875 0.40625-1.9375zm0-4.6562h3.8125v3.125h-3.8125z"/>
  </symbol>
  <symbol id="j" overflow="visible">
   <path d="m11.5-11.594v3.125c-0.52344-0.35156-1.043-0.61328-1.5625-0.78125-0.52344-0.17578-1.0625-0.26562-1.625-0.26562-1.0742 0-1.9062 0.3125-2.5 0.9375s-0.89062 1.4961-0.89062 2.6094c0 1.1172 0.29688 1.9844 0.89062 2.6094s1.4258 0.9375 2.5 0.9375c0.59375 0 1.1562-0.085937 1.6875-0.26562 0.53906-0.17578 1.0391-0.44141 1.5-0.79688v3.125c-0.59375 0.23047-1.1992 0.39453-1.8125 0.5-0.61719 0.11328-1.2344 0.17188-1.8594 0.17188-2.1562 0-3.8438-0.55078-5.0625-1.6562-1.2188-1.1133-1.8281-2.6562-1.8281-4.625s0.60938-3.5039 1.8281-4.6094c1.2188-1.1133 2.9062-1.6719 5.0625-1.6719 0.625 0 1.2383 0.058594 1.8438 0.17188 0.61328 0.10547 1.2227 0.26562 1.8281 0.48438z"/>
  </symbol>
 </defs>
 <g>
  <path d="m261.32 315.56c0.21094 5.9141 1.0156 10.996 7.7695 12.336v0.003907c3.168 0.64844 6.3906 0.96875 9.625 0.95703 4.0039 0.03125 10.691 0.98438 12.844-3.5273 1.3008-3.2305 2-6.6758 2.0625-10.156 0-0.32812 0.03125-0.625 0.03125-0.95703v-0.003906c-10.938 2.043-22.23 0.78516-32.445-3.6133 0.023437 1.6445 0.082031 3.3164 0.11328 4.9609z"/>
  <path d="m286.87 420.1c-5.0781-0.17969-10.121-0.94141-15.027-2.2734-6.0078-2.2617-11.84-4.9688-17.445-8.0977-0.37891 1.7773-1.0352 3.4844-1.9453 5.0547 9.5586 23.152 48.789 32.656 70.152 36h0.003907c18.047 3.25 36.348 4.8711 54.688 4.8398 15.238-0.39062 27.246-5.168 41.172-9.4102-9.3828-17.242-18.914-34.359-26.688-52.406-10.309 0.98828-20.562 2.5742-30.891 3.707v-0.003906c-0.53516 0.30469-1.168 0.36719-1.75 0.17969-1.9727 0.21094-3.9375 0.4375-5.9453 0.59766-9.9219 0.75-18.945-0.21094-25.785-8.0664h-0.003906c-1.5898-1.7891-1.5234-4.5039 0.14844-6.2148 0.35938-0.64453 0.875-1.1875 1.4961-1.582 3.6133-2.3008-1.8242-6.4258-5.4688-7.6836v0.003906c-2.5312 8.957-4.5391 18.059-6.0039 27.25-2.9883 20.016-11.113 19.25-29.578 18.312l-0.003906 0.003906c-0.37891-0.035156-0.75781-0.10547-1.125-0.21094zm85.93 27.34c4.1211-0.0625 9.0195 0 14.25-0.57031 4.9883-0.32812 9.8516-1.7266 14.254-4.0938-2.7891-4.3359-5.0312-9.0039-6.6758-13.891-1.793-5.1406-3.0195-9.832-4.0625-13.715-2-7.707-3.5273-12.516-2.8711-12.789 0.65625-0.26953 3.2578 4.0078 6.2188 11.688 1.4922 3.793 3.0625 8.3125 5.0469 13.203v-0.003907c1.9531 5.2109 4.6172 10.125 7.918 14.605l1.7031 2.1484-2.1211 1.4336-0.92188 0.66016h-0.003906c-2.7734 1.9102-5.8711 3.2969-9.1445 4.0938-2.9258 0.73828-5.918 1.1758-8.9336 1.3125-4.9336 0.23047-9.8789 0.058593-14.785-0.50781-8.2773-0.92578-13.297-1.6445-13.328-2.332s5.2109-1.2734 13.457-1.2422zm-71.918-18.375h0.003906c4.7266-1.1797 8.875-4.0234 11.68-8.0078 2.4844-3.418 4.6641-7.0469 6.5156-10.844 1.75-3.2578 3.168-5.9141 4.375-7.6797 1.207-1.7617 2-2.543 2.3008-2.4219v-0.003906c-0.58984 3.9961-1.7891 7.8789-3.5586 11.508-1.4922 4.2617-3.4961 8.3242-5.9766 12.098-1.5664 2.3672-3.5 4.4648-5.7344 6.2148-1.3594 1.0117-2.8281 1.875-4.375 2.5703l0.09375 0.09375v-0.003906c4.2891 3.5625 9.2188 6.2773 14.52 8.0078 4.4609 1.4883 9.0234 2.6484 13.652 3.4648 7.9453 1.4648 13.023 2.0039 13.023 2.7461 0 0.62891-5.1094 1.3789-13.504 0.80859v0.003906c-4.9336-0.36328-9.8203-1.2344-14.578-2.6016-6.0273-1.6758-11.629-4.6211-16.43-8.6367-1.1602-1.0078-2.2617-2.082-3.293-3.2227l-3.0625-3.0625z"/>
  <path d="m277.52 388.79c1.75 7.4688 13.418 6.0391 19.453 6.2734h-0.003906c0.11328 0.015625 0.22656 0.046875 0.32812 0.09375 1.707-5.4688 3.2891-10.977 4.75-16.523-8.2148 0.35938-17.418 1.1953-24.258-3.582v-0.003906c0.25391 4.1289 0.085938 8.2734-0.50781 12.367 0.097656 0.44531 0.12109 0.92969 0.23828 1.375z"/>
  <path d="m365.78 114.87c-0.44141 0.070312-0.89062 0.042968-1.3125-0.089844-3.4961-1.2969-7.1094-2.2578-10.785-2.8672-0.4375 2.4805-0.95703 5.0469-1.5547 7.6211 4.543-1.168 9.3477-2.3945 14.223-3.3164-0.070312-0.26562-0.11328-0.53516-0.12109-0.8125 0.007813-0.078125 0.027344-0.16016 0.0625-0.23438-0.18359-0.082031-0.35156-0.18359-0.51172-0.30078z"/>
  <path d="m331.36 346.99c10.754-0.26562 21.512-1.0469 32.234-1.6719 3.3477-12.312 8.8711-24.234 11.234-36.781 1.6445-8.7227 1.75-17.656-9.5039-19.25v0.003906c-8.4336-0.94141-16.965-0.61328-25.305 0.98438-0.65625 9.293-1.4062 18.523-2.5977 27.758-1.3594 9.7812-3.3867 19.457-6.0625 28.957zm29.664-46.191c-0.32813-0.97266-0.98047-1.8047-1.8477-2.3555-1.6641-0.94141-3.4414-1.6523-5.2891-2.1211-1.4062-0.4375-2.2148-0.77734-2.2148-1.1367s0.83984-0.65625 2.3945-0.80469l-0.003906-0.003906c2.3047-0.27734 4.6406 0.042969 6.7812 0.92969 1.7305 0.75391 3.1445 2.082 4.0039 3.7617 0.85938 1.8477 1.2422 3.8828 1.1094 5.9141 0 0.53906-0.0625 0.92578-0.09375 1.4062l-0.058593 0.75-0.15234 0.6875c-0.17578 0.92578-0.35547 1.8828-0.5625 2.8398-0.4375 1.9414-0.875 3.9102-1.3125 5.9766-1.375 3.8789-2.5977 7.6172-4.0898 10.871-1.4922 3.2539-2.9297 6.125-4.2734 8.3984-2.7891 4.5391-4.7891 7.1953-5.4141 6.8984-1.4336-0.71875 4.3008-12.641 8.9336-27.605 0.4375-1.8828 0.875-3.7344 1.3125-5.5312 0.49609-1.6602 0.85547-3.3594 1.0703-5.0742 0.19141-1.2734 0.089844-2.5703-0.29297-3.8008z"/>
  <path d="m277.75 133.96c-2.4102-3.1133-3.9531-6.8086-4.4727-10.715-0.51953-3.9023 0.003906-7.875 1.5156-11.512-7.1602 3.5703-11.949 10.609-12.637 18.582 5.2227 4.4766 11.938 6.8164 18.812 6.5625-1.2148-0.80078-2.3008-1.7852-3.2188-2.918z"/>
  <path d="m300.88 132.56c4.5742-3.8008 5.4102-10.504 1.9102-15.312-1.9648-3.8555-5.4844-6.6875-9.6719-7.7812-4.1875-1.0977-8.6445-0.34766-12.246 2.0547-0.082031 0.042968-0.17188 0.074218-0.26562 0.089843-2.9883 5.3203-3.0234 11.801-0.09375 17.152 2.3242 3.0391 5.6914 5.1094 9.4531 5.8086 3.7617 0.70312 7.6484-0.015625 10.914-2.0117z"/>
  <path d="m350.39 125.48c-1.5547 5.2383-4.4844 9.9609-8.4883 13.68 16.312-1.6719 32.508-4.332 48.766-6.6328 0.11719-3.9375 0.59375-10.902-3.9375-11.652h-0.003907c-3.7891-0.55859-7.6367-0.60547-11.438-0.14844-8.3672 1.0117-16.656 2.6016-24.805 4.7539z"/>
  <path d="m297.5 411.32c1.3125 0 2.625 0 3.9375 0.03125 0.37109-0.007812 0.74219 0.03125 1.1016 0.11719 2.9297-0.98438 5.1094-3.3438 5.8906-8.5156 1.6133-9.2305 3.7656-18.359 6.4531-27.34 6.6016-24.406 13.414-48.73 15.387-74.035 0.98438-12.879 1.4062-25.875 2.9258-38.691 1.1641-10.062 4.1211-20.707 2.8398-30.805v0.003906c-1.1562-9.9805-6.5-18.996-14.699-24.801 11.98 21.629 5.8281 48.125 2.8672 74.039-5.0391 44.18-11.547 88.016-26.703 130z"/>
  <path d="m306.83 113.56c2.0391 2.8945 3.1875 6.3281 3.2969 9.8711 0.11328 3.5391-0.81641 7.0352-2.6719 10.055 8.0391-2.8945 15.266-7.6797 21.066-13.949-8.4062-6.3242-18.125-10.672-28.438-12.734 2.7305 1.7148 5.0352 4.0234 6.7461 6.7578z"/>
  <path d="m324.55 86.07c-9.1367-2.168-18.488-3.2695-27.879-3.2852-23.363 0.74219-50.852 8.6016-49.875 36.777 0 0.0625 0.03125 0.09375 0.03125 0.15234 6.6953-17.988 22.75-27.848 43.086-28.438 17.715-0.47656 46.277 1.4922 58.559 16.793 0.8125-15.039-10.805-19.34-23.922-22z"/>
  <path d="m396.07 156.91c-8.9414-0.48047-17.906 0-26.746 1.4336-14.316 1.3086-28.555 3.3438-42.664 6.0938-15.086 3.582-29.906 8.1875-44.938 11.891-0.20703 0.4375-0.4375 0.875-0.625 1.3125 17.938 2.957 34.895-1.4609 52.645-4.6289v0.003906c14.457-2.3047 29.074-3.4141 43.711-3.3164 9.4414-0.14844 22.887-2.2383 30.477 5.3164v-0.003906c1.6133 1.6523 2.875 3.6133 3.707 5.7695 2.4492-11.59-0.33203-22.707-15.566-23.871z"/>
  <path d="m354.54 389.24c2.3008-0.30078 4.6016-0.66016 6.8125-0.95703h-0.003907c2.6562-4.4883 3.6211-9.7734 2.7227-14.91-1.4336-0.03125-2.8711-0.03125-4.3047-0.03125 0.32031 5.7695-1.5469 11.449-5.2266 15.898z"/>
  <path d="m381.1 344.54c3.5859-11.531 7.7383-22.918 11.055-34.535 1.375-4.8438 7.0234-16.879-1.4688-18.629-2.5977-0.49219-5.2344-0.73047-7.875-0.71875 0.29688 0.62891 0.54688 1.2773 0.75 1.9453 4.5117 16.969-5.4062 35.734-10.5 52.199 2.6914-0.11328 5.375-0.19922 8.0391-0.26172z"/>
  <path d="m383.34 367.5c0.019531-5.2969-2.2188-10.352-6.1523-13.895-16.105 0.57031-32.18 2.0898-48.312 2.3945-0.95703 3.2852-1.9102 6.6016-2.8398 9.8867 9.0508 2.5117 16.523 13.355 11.145 20.941h-0.003906c2.3047 1.4531 4.9141 2.3398 7.6211 2.5977 6.7812-1.75 10.785-10.723 9.4102-17.328h0.003906c-0.5625-0.80469-0.63672-1.8516-0.19141-2.7266 0.44141-0.875 1.332-1.4336 2.3125-1.457 8.3359 0.03125 16.73 0.48047 25.008-0.20703 0.65625-0.039062 1.3125-0.13281 2-0.20703z"/>
  <path d="m392.96 344.48c0.32422 0.007812 0.64453 0.046875 0.96094 0.12109 0.44531-0.050781 0.89844-0.039062 1.3438 0.03125 1.7422 0.32813 3.4375 0.86719 5.0469 1.6094 0.16406-8.6523-0.10156-17.305-0.80469-25.93-2.8086 8.3633-6.3672 16.625-8.9648 24.168 0.80859 0 1.6133-0.027344 2.418 0z"/>
  <path d="m370.86 205.79c-10.246 4.4414-21.391 6.4062-32.535 5.7422 3.2812 4.6406 5.3711 10.016 6.0938 15.652 1.9727 15.629-2.1211 31.164-3.2539 46.762-0.15234 2.3906-0.33203 4.7773-0.48047 7.2031 10.012-1.6133 24.801-3.2578 34.332 1.4062 0.09375-0.15234 0.14844-0.30078 0.24219-0.4375l-0.003906-0.003906c7.3828-11.637 11.133-25.211 10.77-38.988-0.36328-13.781-4.8203-27.137-12.805-38.371-0.95312 0.4375-1.7773 0.80078-2.3594 1.0352zm7.2266 43.312c-0.027343 1.4922-0.027343 2.9883-0.058593 4.543v1.1641l-0.03125 0.50781-0.03125 0.29688-0.0625 0.59766c-0.085938 0.77734-0.14844 1.582-0.23438 2.3906h0.003907c-0.19141 1.7266-0.51172 3.4336-0.95703 5.1094-0.41406 1.793-0.80469 3.2578-1.2266 4.9297-0.26562 1.4648-0.50781 2.9258-0.77344 4.375l-0.6875 4.0039-3.2852-2.1875c-1.6289-0.86719-3.4141-1.4062-5.25-1.582-2.0234-0.26562-4.0586-0.39453-6.0977-0.39062-3.5898-0.125-7.1758 0.29688-10.637 1.2539l-2.8672 0.95312 0.058593-2.5664c0.03125-1.6406 0.0625-3.2227 0.09375-4.6914 0.11719-1.4648 0.41406-2.7773 0.625-4.0352l-0.003906 0.003907c0.41016-2.1094 0.9375-4.1953 1.5859-6.2422 1.0781-3.3477 1.9102-5.1719 2.332-5.0781s0.32812 2.0898-0.0625 5.5547c-0.11719 1.75-0.57031 3.8242-0.625 6.2109-0.03125 1.168-0.21094 2.4492-0.17969 3.7344 0.03125 0.47656 0.058593 1.0156 0.085937 1.5234 3.1172-0.80469 6.3164-1.2578 9.5352-1.3398 2.2617-0.085938 4.5312-0.003907 6.7812 0.23828 1.4141 0.1875 2.8125 0.48047 4.1836 0.875 0.085937-0.57031 0.17969-1.1367 0.29688-1.707 0.4375-1.6406 0.83594-3.2852 1.2266-4.8945h-0.003906c0.4375-1.4883 0.75781-3.0078 0.96094-4.5469 0.085937-0.80469 0.17969-1.5781 0.29688-2.3906l-0.32812-0.59375-0.26953-0.24219-0.058593 0.03125v-0.0625l0.058593 0.03125 0.33203-0.11719 0.23438-1.1992c0.0625-1.5547 0.24219-3.0625 0.30078-4.5664v0.003906c0.39844-5.125 0.38672-10.27-0.03125-15.387-0.24609-3.3672-1.0742-6.6641-2.4492-9.7461-0.37891-0.84375-0.81641-1.6641-1.3125-2.4492-0.32812-0.59375-0.4375-0.95312-0.29688-1.0781 0.14062-0.12109 0.47656 0 1.0469 0.39062 0.86719 0.54297 1.6289 1.2422 2.2383 2.0625 2.2422 3.0273 3.7422 6.5352 4.375 10.25 0.96094 5.3008 1.3555 10.688 1.168 16.074z"/>
  <path d="m373.36 386.79c2.6016-4.0117 3.0703-9.0508 1.2539-13.477-1.7031 0.058594-3.4023 0.058594-5.0781 0.058594 0.65234 4.7812 0.015626 9.6523-1.8516 14.105 1.8828-0.24219 3.793-0.44922 5.6758-0.6875z"/>
  <path d="m393.31 353.41c-0.11719 0-0.23438 0.03125-0.35938 0.03125-2.9258-0.058593-5.8242-0.058593-8.75 0v-0.003906c2.6992 3.957 4.25 8.5781 4.4844 13.359 5.375-0.97266 10.801-1.6328 16.254-1.9727-1.5742-5.6016-6-9.9492-11.629-11.414z"/>
  <path d="m383.29 385.62c3.1602-3.0742 3.6055-7.9961 1.0469-11.59-0.29688-0.31641-0.51953-0.69531-0.65625-1.1055-0.77734 0.0625-1.5586 0.14844-2.332 0.17969-0.39062 0.03125-0.77734 0.03125-1.1953 0.03125 1.1797 4.2266 1.0547 8.7148-0.35938 12.875 1.1641-0.13672 2.3281-0.24219 3.4961-0.39062z"/>
  <path d="m402.25 213.17c-3.4688-1.9922-7.1719-3.5469-11.023-4.6289 13.176 11.621 14.793 29.938 13.445 47.863-0.875 11.266-1.9414 22.312-1.7891 33.496v-0.003907c0.35156 0.8125 0.59375 1.6641 0.71484 2.5391 0.48438 3.5156 0.50391 7.082 0.058594 10.605 1.8633 15.441 2.4922 31.008 1.8867 46.551 1.9844 1.7148 3.6875 3.7305 5.0469 5.9766v-3.7344c-0.0625-19.688-0.20703-39.375-0.4375-59.062-0.17969-17.566-0.53906-35.105 0.03125-52.645 0.28516-8.8203 1.2969-21.668-7.9336-26.957z"/>
  <path d="m397.5 284.43c0-4.6016 0.15234-9.1875 0.57031-13.805 1.75-19.57 5.2891-43.504-9.7383-57.457l-0.003907 0.003907c9.7227 22.062 8.8086 47.359-2.4805 68.66 4.0195 0.082031 7.9805 0.96484 11.652 2.5977z"/>
  <path d="m410.59 384.34c-2.4258 3.5078-5.9297 6.1289-9.9805 7.4688 2.3555 5.4062 4.8555 10.746 7.5 16.012 3.9102-6.6328 2.7773-15.82 2.4805-23.48z"/>
  <path d="m405.9 370.18c-1.7773 0.027344-3.5508 0.14844-5.3164 0.35938 0.59375 4.5273-0.5625 9.1094-3.2266 12.816 5.543-1.8984 9.0703-7.3398 8.543-13.176z"/>
  <path d="m290.43 250.55c0.34766-5.9922 0.046875-12.008-0.89844-17.938-3.4102-0.50391-6.8633-0.64844-10.305-0.4375-2.2031 5.8086-3.4531 11.93-3.707 18.137 2.625 0.55469 5.293 0.88281 7.9766 0.98438 2.3281-0.070313 4.6445-0.31641 6.9336-0.74609z"/>
  <path d="m395.23 371.28-5.6445 0.875c1.9258 3.4922 2.2812 7.6406 0.98438 11.414 3.375-3.1523 5.0977-7.6914 4.6602-12.289z"/>
  <path d="m264.73 367.46c2.9727-0.26562 5.6836-1.8008 7.4375-4.2148-0.085938-4.8984 0.95703-10.246 1.1641-14.398-9.625-0.4375-21.184-2.5117-24.141-12.016-5.5859-17.984-3.4336-40.125-4.4492-58.828v0.003906c-0.082032-0.78125 0.25-1.5547 0.875-2.0352 0.42969-0.64453 1.1289-1.0586 1.8984-1.125s1.5312 0.21875 2.0664 0.78125c14.438 14.613 41.77 13.355 59.605 6.5156 2.2148-0.83594 3.5 1.2539 3.168 3.0625l-0.003907 0.046875c0.6875 16.188-0.875 36.93-6.9609 52.23-4.1211 10.395-14.941 11.41-24.766 11.473-0.62891 0-1.2539 0-1.9102 0.03125v-0.003906c0.19531 4.9688-0.19922 9.9414-1.168 14.816 0.03125 0.53906 0.12109 1.0781 0.17969 1.5547 0.35938 0.43359 0.53906 0.98828 0.50781 1.5547v0.32812c0.45312 1.5352 1.4648 2.8477 2.8359 3.6719 6.6641 3.7969 14.91 2.625 22.379 2.332 6.8281-28.367 11.75-57.16 14.73-86.188 3.3477-29.312 12.875-62.355-7.7969-85.719-4.6914-1.8398-9.5859-3.125-14.582-3.8242-17.031-2.4805-38.871-1.793-46.879 16.465-6.1875 14.102-5.7969 29.906-6.9609 44.996-2.7227 35.52 0.89844 70.57 4.8984 105.7h0.003906c5.457 2.9609 11.77 3.9453 17.867 2.7852zm-15.539-118.44c1.3125-18.938 5.6875-42.125 28.355-43.141 18.703-0.83594 36.094 3.5 38.363 24.938 0.98438 9.3242 3.5586 24.68-1.1641 33.223-4.875 8.875-12.91 11.375-22.469 12.879v0.003906c-0.12109 0.011719-0.24219 0.011719-0.35938 0-0.11719 0.03125-0.21094 0.085937-0.35938 0.11719-21.152 2.2461-44.129-2.8008-42.367-28.02z"/>
  <path d="m254.96 286.16c-1.5781-0.83594-3.0977-1.7852-4.5391-2.8398 0.75 12.906 1.6133 25.785 2.0898 38.691 0.62891 18.078 12.43 22.199 28.117 21.543 8.3945-0.32813 17.777-0.32813 20.672-10.25 1.2969-4.6758 2.207-9.4531 2.7227-14.281 1.6289-10.074 2.6367-20.242 3.0195-30.445-2.4492 0.77734-4.9922 1.4336-7.6211 2.0039 0.15625 0.42969 0.20703 0.89062 0.14844 1.3438-1.6094 10.5 3.168 26.59-3.375 36.121-4.8711 7.082-13.746 6.7227-21.574 6.0391-7.707-0.6875-15.832-2.5117-18.078-10.906-3.0742-11.504-0.86328-25.16-1.582-37.02z"/>
  <path d="m427.54 143.34c-8.4258-7.1094-23.395-4.5117-33.91-5.8555-18.109 2.5391-36.156 5.6172-54.375 7.3203h-0.003906c-0.35938 0.48828-0.875 0.83984-1.4648 0.98438-0.39062 0.92578-0.80469 1.8555-1.1953 2.8086 0.27734 0.63672 0.23437 1.3711-0.12109 1.9688-0.35547 0.59766-0.98047 0.98828-1.6719 1.0508-15.598 2.2109-30.594 7-45.938 10.367-1.4648 2.6602-2.8398 5.3477-4.1562 8.0664 34.242-8.668 69.793-19.902 105.47-18.812 21.992 0.66016 30.211 12.609 26.949 29.609 8.2031-13.156 18.152-30.965 10.418-37.508z"/>
  <path d="m267.18 257.18c5.1992 2.0312 10.73 3.0703 16.312 3.0625 4.4062 0.078124 8.793-0.55469 12.996-1.8828 4.0352-1.582 2.8945-7.4727 2.7188-10.5-0.17969-3.3477-0.085937-6.6641-0.17969-10.012v0.003906c0.09375-3.1445-0.32812-6.2852-1.25-9.293-2.0039-5.4961-8.0664-5.3203-13.148-5.4375-6.7812-0.17969-11.352-1.0781-13.773 5.6172-1.7188 4.5391-2.9492 9.2461-3.6758 14.043-0.23828 1.5781-2.2695 13.379 0 14.398zm7.5-28.266c0.375-1.1328 1.4062-1.918 2.5977-1.9727 5.0703-0.48047 10.18-0.23828 15.18 0.71484 0.90234 0.25391 1.6133 0.95703 1.8789 1.8555 1.4727 7.6641 1.9766 15.484 1.4961 23.277-0.007812 1.207-0.80859 2.2656-1.9727 2.5977-3.4062 0.75391-6.8789 1.1875-10.367 1.2852-3.8672-0.16406-7.7109-0.70312-11.473-1.6133-1.1602-0.33203-1.9648-1.3906-1.9727-2.5977-0.011719-8.0781 1.5625-16.078 4.6328-23.547z"/>
  <path d="m260.49 288.7c0.29688 5.2891 0.4375 10.578 0.57031 15.898h-0.003906c10.133 5.0508 21.676 6.5117 32.742 4.1523-0.21094-5.7422-0.066406-11.492 0.4375-17.215-11.309 1.8672-22.906 0.89062-33.746-2.8359z"/>
  <path d="m291.2 271.69c11.375-1.8828 20.824-6.125 20.168-20.23-0.29688-5.7656 0.11719-11.738-0.50781-17.5-2.0039-18.852-16.016-24.527-33.316-22.707-19.059 2.0391-23.793 25-23.031 41.477 0.89453 19.273 21.512 20.527 36.688 18.961zm-29.219-30.297c0.875-5.1992 2.5117-18.344 7.6523-21.48 5.5859-3.4375 14.16-2.332 20.227-1.6758 12.07 1.2852 14.91 9.7734 14.551 21.152-0.17969 5.3203 3.0625 17.242-1.6133 21.395-4.9609 4.4219-13.027 4.6328-19.301 4.8711-6.0312-0.21094-16.105-0.47656-20.703-5.0469-3.8906-3.9336-1.6484-14.449-0.8125-19.23z"/>
  <path d="m367.06 464.32c-20.789-0.67187-41.465-3.3242-61.754-7.9141-16.945-4.4219-40.039-12.016-53.305-26.293 1.793 31.727 6.3672 63.219 7.6211 94.98 23.75 8.3125 49.387 7.9766 74.305 8.0078 28 0 57.516 3.707 83.809-7.6484 1.6133-23.516 4.375-46.938 2.625-70.438-18.227 5.4492-33.348 10.59-53.301 9.3047zm-65.766 61.367c-4.9219 0.32031-9.8555 0.39062-14.785 0.21094-3.0273-0.12891-6.0391-0.44531-9.0234-0.95703-1.668-0.29297-3.3086-0.73047-4.8984-1.3125-1.9102-0.63281-3.6523-1.6758-5.1094-3.0625l-0.0625-0.09375-0.058594-0.085937v0.003906c-0.64453-0.98047-1.0156-2.1172-1.0742-3.2891-0.066406-0.82422-0.085937-1.6523-0.0625-2.4805 0.0625-1.375 0.14844-2.7773 0.21094-4.2148-0.0625-0.50781-0.11719-1.0156-0.17969-1.5547-1.793-15.48-3.0195-29.547-4.375-39.738-1.1055-10.219-1.4648-16.582-0.77734-16.703s2.2695 6.0664 4.3047 16.137c2.1875 10.012 4.0352 24.109 5.8242 39.707 0.09375 0.59766-0.17969 1.1953-0.11719 1.75l-0.29688 0.17969v0.11719c0 1.75 0.11719 3.1094 0.085938 4.4844l-0.003906 0.003906c0.011718 0.62109 0.070312 1.2383 0.17969 1.8516 0 0.29688 0.14844 0.4375 0.17969 0.65625v0.03125c2.1133 1.543 4.5586 2.5781 7.1406 3.0156 2.7734 0.5625 5.5781 0.96875 8.3945 1.2266 5.4375 0.53906 10.34 0.6875 14.465 0.875 8.1875 0.26953 13.234 0.65625 13.234 1.3125-4.2656 1.3555-8.7188 2.0078-13.195 1.9297zm114.58-61.844c-0.26953 13.77-1.3047 27.516-3.1055 41.172-0.71484 4.9414-2.3242 9.707-4.7539 14.07-0.37891 0.55859-0.78516 1.0977-1.2227 1.6133-0.49219 0.57031-1.043 1.0938-1.6406 1.5547l-0.6875 0.47656c-0.35156 0.1875-0.71094 0.35547-1.0781 0.50781-0.62109 0.32812-1.2852 0.56641-1.9727 0.71484-1.1484 0.29297-2.3164 0.49219-3.5 0.60156-1.1328 0.14844-2.1875 0.21094-3.2539 0.26562-4.2734 0.26953-8.2461 0.09375-11.656 0.33203-3.4609 0.36328-6.9414 0.53125-10.426 0.50781-12.727-0.12109-20.348-1.707-20.348-2.2695 0.03125-0.83984 7.875-0.50781 20.227-1.2852 3.0625-0.09375 6.4258-0.65625 9.9844-1.0781 3.9375-0.47656 7.875-0.4375 11.891-0.83594 0.98437-0.09375 2-0.17969 2.9844-0.32812 0.95703-0.12109 1.9062-0.30859 2.8398-0.56641 0.375-0.082031 0.73828-0.21094 1.0742-0.39062 0.14062-0.066406 0.28906-0.11719 0.4375-0.14844l0.65625-0.50781c0.28516-0.21094 0.53906-0.46484 0.75-0.75 0.28906-0.35156 0.55859-0.71875 0.80469-1.1016 1.9883-3.8555 3.3203-8.0156 3.9375-12.312 2.3633-13.562 2.5742-26.562 3.707-37.625-5.7109 1.5664-11.586 2.4492-17.5 2.625-2.6172 0.3125-5.2656 0.10156-7.7969-0.625 0-0.4375 2.7461-0.95703 7.5586-1.6758 6.6133-1.0117 13.102-2.7109 19.359-5.0781l2.9883-1.1953z"/>
  <path d="m473.34 133c-4.375-14.672-17.422-23.664-31.852-27.191-1.5547-0.39062-3.168-0.75-4.8398-1.1055 13.832 6.4844 27.562 17.453 30.027 33.316 4.7188 30.414-26.023 46.637-50.227 57.934 28.027-5.8516 66.66-30.172 56.891-62.953z"/>
  <path d="m267.09 391.66c2.2344-0.68359 3.9961-2.4141 4.7188-4.6328-0.19922-5.5586 0.09375-11.121 0.875-16.625-1.1992 0.72266-2.4961 1.2656-3.8516 1.6133-7.0039 1.8555-14.414 1.5039-21.207-1.0156 0.66016 5.8555 1.3477 11.742 2.0039 17.625 5.3008 2.1367 12.055 4.6875 17.461 3.0352z"/>
  <path d="m371.63 115.35c4.707-0.69531 9.4883-0.70703 14.195-0.027344 9.5898 1.5547 10.012 9.0195 10.16 17.09 11.055 0.98438 34.184-1.8516 38.305 11.68 4.5234 14.793-8.0117 31.785-16.406 45.348 21.066-9.8906 50.016-25.812 43.594-49.984-4.7188-17.898-20.562-30.086-38.363-33.824h-0.003906c-8.7734-1.5039-17.777-1.0352-26.348 1.375-0.26953 0.14844-0.53906 0.26953-0.80859 0.4375h-0.003906c-1.1484 0.82422-2.5938 1.1172-3.9727 0.80469-7.0234 2.0039-13.922 4.543-20.285 6.8125-0.035156 0.089844-0.058594 0.1875-0.0625 0.28906zm50.168-4.8711c1.0703 0.12109 2.1875 0.30078 3.375 0.48047 1.168 0.26562 2.3633 0.53906 3.6172 0.875 1.2266 0.4375 2.625 0.83984 3.8242 1.3789 0.5625 0.26562 1.1953 0.53906 1.7891 0.80469 0.34766 0.15234 0.6875 0.32031 1.0195 0.50781l0.95312 0.50781c1.2266 0.71875 2.5117 1.4062 3.793 2.2148 1.2539 0.92188 2.5117 1.8516 3.7969 2.8086 1.1953 1.1016 2.3594 2.3594 3.582 3.582 1.0469 1.2266 1.8867 2.5117 2.8711 3.7656v0.003906c1.9883 2.8203 3.4023 6.0078 4.1523 9.3789 0.61328 3.1016 0.69531 6.2812 0.24219 9.4102-1.5039 8.5469-6.043 16.262-12.789 21.723-1.8828 1.4609-3.1055 2-3.3164 1.75-0.57031-0.62891 3.3477-4.125 7.2266-11.117 2.2539-4.0039 3.707-8.4102 4.2773-12.969 0.23828-2.5859 0.078124-5.1953-0.47656-7.7344-0.65625-2.668-1.8008-5.1914-3.3789-7.4375-0.95312-1.2539-1.8516-2.625-2.7773-3.7305-0.98438-0.98828-1.9102-1.9414-2.8711-2.9023-1.0703-0.875-2.1484-1.75-3.2227-2.5664-1.168-0.71875-2.3008-1.4336-3.4062-2.1523h-0.003906c-3.9609-2.418-8.3047-4.1484-12.844-5.1133-7.918-1.4922-13.238-1.9414-13.148-2.7188 0.03125-0.57031 5.1094-1.4141 13.715-0.75z"/>
  <path d="m291.86 411.17c1.3125-3.5508 2.543-7.1406 3.7344-10.754-6.7812-0.12109-18.555 0.4375-21.84-6.2188h0.003906c-1.2148 1.082-2.6562 1.8789-4.2148 2.332-6.4766 1.418-13.238 0.73828-19.301-1.9414 0.17969 1.4336 0.33203 2.8945 0.48047 4.332 7.3203 1.9102 12.758 7.2031 20.125 9.3242v-0.003907c6.8594 1.832 13.914 2.8164 21.012 2.9297z"/>
  <path d="m299.21 144.84c9.9023 0.011718 19.746-1.4922 29.195-4.4531 12.008-4.7773 16.074-13.172 18.789-24.5-0.097656-0.11328-0.1875-0.23438-0.26562-0.35938-8.2461-16.699-40.277-19.984-57.008-18.852-20.77 1.4062-35.945 11.117-40.156 32.418-0.09375 0.44922-0.30859 0.86328-0.62891 1.1953v0.80469c7.5 17.629 31.402 15.328 50.074 13.746zm-15.148-42.727c19.48-3.2852 34.332 4.332 50.105 14.73h0.003907c0.71094 0.42188 1.1875 1.1484 1.3008 1.9688 0.10938 0.82031-0.16406 1.6484-0.73828 2.2422-12.457 11.891-21.875 19-39.812 20.078-12.789 0.77734-26.859 3.168-36.359-6.8125-1.125-0.28516-1.8984-1.3203-1.8555-2.4805-0.10156-14.73 12.984-27.309 27.355-29.727z"/>
  <path d="m243.01 77.793c-2.6914-7.5586-8.0352-18.734-3.7656-26.688 4.4453-8.2305 13.836-10.75 22.113-13.527 9.1875-3.1055 19.328-6.3594 28.875-2.9883 10.035 3.5273 11.859 18.289 14.438 26.98 1.75-0.09375 3.5-0.17969 5.25-0.24219-0.98438-9.9805-3.5273-25.695-13.562-30.531-6.5195-2.7383-13.668-3.5977-20.648-2.4805-4.543 0.875-9.0508 1.9414-13.414 3.1992-11.668 3.3125-30.418 6.4492-29.801 21.859 0.75 9.4336 2.7773 18.719 6.0312 27.605 1.4688-1.1289 2.9336-2.1992 4.4844-3.1875z"/>
  <path d="m372.31 63.598c3.5508-4.1719 6.3047-8.9609 8.125-14.129 0.57422-1.8516 0.37109-3.8594-0.57031-5.5586-2.543-0.94141-5.1445-1.7266-7.7852-2.3477-7.875-1.9102-17.477-5.5273-22.559 3.3477-2.7227 5.1367-4.9336 10.531-6.6016 16.105 9.8672-0.50781 19.762 0.36328 29.391 2.582z"/>
  <path d="m315.29 61.18c5.9141-0.11719 11.711-0.11719 17.324-0.11719-4.8398-14.641-11.949-31.5-29.098-33.879-1.1953-0.17969-2.418-0.26953-3.6445-0.39062 0.4375 0.26562 0.89844 0.50781 1.3438 0.80469 10.219 6.9336 12.938 22.141 14.074 33.582z"/>
  <path d="m381.55 67.422c1.3438 0.80469 2.6133 1.7266 3.793 2.7539 3.9375-7 9.3242-16.164 3.8867-20.918-0.88672-0.78125-1.8359-1.4922-2.8398-2.1211 0.03125 6.3359-4.9922 13.09-8.8164 18.316 1.3672 0.57422 2.6953 1.2305 3.9766 1.9688z"/>
  <path d="m382 105.79c2.3633-0.875 4.7188-1.8203 7.0508-2.7188-0.47656-3.1992-0.98828-6.3359-1.6758-9.3555v0.003906c-4.8086-0.34375-9.5391 1.3867-12.992 4.75-2.293 3.0391-3.6172 6.6992-3.7969 10.5 2.4219-0.40234 4.8086-0.98828 7.1445-1.75 1.3984-0.46875 2.832-0.95312 4.2695-1.4297z"/>
  <path d="m281.67 52.246c-4.5703-1.9414-10.727 0.71875-15.09 2.1523-3.2539 1.1055-11.562 2.0625-12.102 6.0312v0.003906c-0.14453 3.5938 0.3125 7.1914 1.3438 10.637 10.262-4.0938 21.023-6.7969 32.004-8.0352-1.0781-3.9453-2.6055-9.2617-6.1562-10.789z"/>
  <path d="m299.18 61.898c-2.957-10.426-5.25-24.711-18.973-23.363-6.7734 0.87109-13.418 2.5664-19.781 5.0469-6.75 2.332-17.777 5.25-17.18 14.438 0.67188 5.8398 2.1719 11.555 4.4531 16.973 1.0156-0.5625 2.0625-1.1016 3.1367-1.6406-0.03125 0-0.03125 0-0.03125-0.03125-1.0469-5.6172-3.1992-11.836-0.29688-17.211 2.6875-4.9883 11.594-5.9453 16.402-7.4688 6.125-1.9102 12.969-3.9727 18.766-0.17969 4.332 2.8398 6.125 9.0508 7.5586 13.953 1.9688-0.1875 3.9727-0.36719 5.9453-0.51562z"/>
  <path d="m266.11 189.12c15.426-3.6016 31.582-2.4023 46.309 3.4336 5.1562 2.0352 10.059 4.6602 14.609 7.8242 0.82812-0.21875 1.6992-0.1875 2.5117 0.09375 23.484 7.9766 40.004-7.4102 61.336-12.688 5.3672-1.7188 11.152-1.5977 16.441 0.34375-2.2969-8.125-7.3203-13.477-18.703-13.266-5.5547 0.12109-11.145 0.17969-16.699 0.30078-12.305-0.070312-24.59 0.9375-36.719 3.0156-19.66 3.8555-38.605 8.3125-58.59 4.0625v0.003907c-0.76562-0.14453-1.4141-0.64844-1.7383-1.3555-0.32812-0.70703-0.29297-1.5273 0.09375-2.2031 0.007813-0.39453 0.097657-0.77734 0.26953-1.1328 2.9883-6.4844 6.0039-12.938 9.4688-19.18 0.375-0.71484 1.082-1.1992 1.8828-1.2852 0.15625-0.074219 0.31641-0.13281 0.48047-0.17969 14.875-3.2578 29.461-7.875 44.547-10.188 0.32812-0.80469 0.6875-1.6406 1.0469-2.4492l-0.003906-0.003906c-10.77 3.6992-22.047 5.707-33.434 5.9453-18.98 1.6016-44.152 2.3672-53.777-13.273-0.83594-0.48828-1.375-1.3633-1.4336-2.332-0.03125-0.17578-0.03125-0.32812-0.0625-0.50781-1.9062-4.5938-2.7617-9.5547-2.5078-14.52 0.875-30.188 26.891-42.691 55.242-42.156 17.328 0.35938 62.203 2.2148 57.902 29.219h0.003906c3.6172 0.59766 7.1758 1.5078 10.633 2.7227 0.09375-5.3594 1.9766-10.535 5.3477-14.703 4.1172-3.9922 9.625-6.2188 15.359-6.2148-1.125-4.2227-3.4688-8.0234-6.7344-10.926-3.2656-2.9062-7.3125-4.7891-11.641-5.4141-14.258-2.0898-28.688-2.8125-43.082-2.1523-29.609-0.03125-67.312 2.0625-88.559 25.637-0.058594 0.058594-0.11719 0.085937-0.17969 0.14844 0.09375 23.004 1.168 43.828 3.3789 65.582 0.26953 2.9258 0.50781 5.9453 0.6875 9.0195h-0.003907c0.51172 0.25781 0.97266 0.61328 1.3477 1.0469 6.5312 7.5508 14.75 15.863 24.969 17.73zm56.555-0.30078c0.8125 0.46484 1.6758 0.83594 2.5742 1.1055 0.47656 0.21094 0.98438 0.42188 1.5234 0.62891 0.59375 0.17969 1.2266 0.32812 1.8828 0.53516h-0.003906c3.0547 0.875 6.1875 1.4375 9.3555 1.6758 3.7695 0.32422 7.5703 0.050781 11.258-0.80859 4.2734-1.1641 7.875-2.5078 11.625-3.6719 3.2695-1.0703 6.6172-1.8789 10.012-2.4219 5.9141-0.80469 9.5898 0.0625 9.5586 0.66016-0.03125 0.77344-3.5273 1.1953-8.7852 2.8359-2.6602 0.80859-5.7656 1.9414-9.2617 3.3164-3.4961 1.375-7.5586 2.9883-11.711 4.125-7.8281 1.8164-16.039 0.97266-23.336-2.3945-0.6875-0.32812-1.3125-0.65625-1.9375-0.92188-0.57031-0.4375-1.1367-0.80859-1.6758-1.168-0.88281-0.53516-1.668-1.2109-2.332-2-1.0469-1.2266-1.4922-2.0625-1.2812-2.3008 0.20703-0.24219 1.1055 0.03125 2.5352 0.80469zm-81.812-37.793c0.35938-1.707 0.71875-2.625 1.0469-2.625s0.65625 0.95703 0.92578 2.6602c0.38281 2.2617 0.94141 4.4922 1.6719 6.6641 1.1289 3.1484 2.7422 6.1016 4.7812 8.75 2.582 3.3086 5.4922 6.3398 8.6953 9.0508 1.707 1.5273 3.4062 2.9297 5.0781 4.3359 1.4766-4.2148 3.3359-8.2852 5.5625-12.16 2-3.6445 3.4023-5.6875 3.9102-5.4961 0.50781 0.19141 0.09375 2.6562-1.1641 6.6875-1.8906 5.1055-3.457 10.328-4.6914 15.629l-0.75 3.7617-3.1055-2.3594c-2.625-2.0039-5.3828-4.1523-8.1914-6.6016l0.003906 0.003907c-3.4961-2.957-6.5859-6.3633-9.1836-10.133-2.1523-3.1758-3.6562-6.7422-4.4219-10.5-0.5-2.5273-0.5625-5.1211-0.1875-7.668z"/>
  <path d="m243.93 205.19c2.7188-4.2305 6.2656-7.8711 10.43-10.695-5.0586-2.7852-9.6719-6.3086-13.688-10.457 0.29297 4.0898 0.82031 8.1602 1.5859 12.188 0.55078 3.0234 1.1367 6.0117 1.6719 8.9648z"/>
  <use x="70" y="625.625" xlink:href="#u"/>
  <use x="86.054688" y="625.625" xlink:href="#d"/>
  <use x="96.839844" y="625.625" xlink:href="#a"/>
  <use x="111.679687" y="625.625" xlink:href="#g"/>
  <use x="126.4375" y="625.625" xlink:href="#b"/>
  <use x="136.894531" y="625.625" xlink:href="#a"/>
  <use x="151.730469" y="625.625" xlink:href="#i"/>
  <use x="175.007812" y="625.625" xlink:href="#c"/>
  <use x="190.664062" y="625.625" xlink:href="#f"/>
  <use x="212.539062" y="625.625" xlink:href="#h"/>
  <use x="230.847656" y="625.625" xlink:href="#a"/>
  <use x="245.683594" y="625.625" xlink:href="#f"/>
  <use x="267.558594" y="625.625" xlink:href="#t"/>
  <use x="284.402344" y="625.625" xlink:href="#g"/>
  <use x="299.164062" y="625.625" xlink:href="#c"/>
  <use x="314.824219" y="625.625" xlink:href="#c"/>
  <use x="330.480469" y="625.625" xlink:href="#s"/>
  <use x="337.980469" y="625.625" xlink:href="#b"/>
  <use x="70" y="647.5" xlink:href="#r"/>
  <use x="79.515625" y="647.5" xlink:href="#d"/>
  <use x="90.304688" y="647.5" xlink:href="#e"/>
  <use x="105.332031" y="647.5" xlink:href="#q"/>
  <use x="135.742188" y="647.5" xlink:href="#b"/>
  <use x="146.199219" y="647.5" xlink:href="#p"/>
  <use x="161.773438" y="647.5" xlink:href="#a"/>
  <use x="184.222656" y="647.5" xlink:href="#o"/>
  <use x="202.53125" y="647.5" xlink:href="#e"/>
  <use x="217.558594" y="647.5" xlink:href="#n"/>
  <use x="233.132812" y="647.5" xlink:href="#m"/>
  <use x="256.320312" y="647.5" xlink:href="#l"/>
  <use x="272.355469" y="647.5" xlink:href="#d"/>
  <use x="283.140625" y="647.5" xlink:href="#e"/>
  <use x="298.171875" y="647.5" xlink:href="#k"/>
  <use x="305.667969" y="647.5" xlink:href="#a"/>
  <use x="320.503906" y="647.5" xlink:href="#j"/>
  <use x="333.472656" y="647.5" xlink:href="#b"/>
 </g>
</svg>
